<?xml version="1.0" encoding="UTF-8"?>
<svg xmlns="http://www.w3.org/2000/svg"
     height="1500"
     width="1500"
     viewBox="-100, -650, 1500, 1500">
   <text x="400"
         y="-625"
         text-anchor="middle"
         font-weight="bold"
         font-size="large"
         stroke="black">
                Democratic Presidents Positive and Negative Butterfly Graph
            </text>
   <line x1="400" x2="400" y1="-600" y2="-290" stroke="black"/>
   <rect x="400" y="-575" width="30" height="25" fill="#42cbf5"/>
   <text x="440" y="-560" stroke="black" text-anchor="middle">15</text>
   <rect x="342" y="-575" width="58" height="25" fill="#429cf5"/>
   <text x="332" y="-560" stroke="black" text-anchor="middle">29</text>
   <text x="900" y="-560" text-anchor="middle" stroke="black">
                Economy
            </text>
   <rect x="400" y="-545" width="48" height="25" fill="#42cbf5"/>
   <text x="458" y="-530" stroke="black" text-anchor="middle">24</text>
   <rect x="356" y="-545" width="44" height="25" fill="#429cf5"/>
   <text x="346" y="-530" stroke="black" text-anchor="middle">22</text>
   <text x="900" y="-530" text-anchor="middle" stroke="black">
                War
            </text>
   <rect x="400" y="-515" width="16" height="25" fill="#42cbf5"/>
   <text x="426" y="-500" stroke="black" text-anchor="middle">8</text>
   <rect x="390" y="-515" width="10" height="25" fill="#429cf5"/>
   <text x="380" y="-500" stroke="black" text-anchor="middle">5</text>
   <text x="900" y="-500" text-anchor="middle" stroke="black">
                Jobs
            </text>
   <rect x="400" y="-485" width="2" height="25" fill="#42cbf5"/>
   <text x="412" y="-470" stroke="black" text-anchor="middle">1</text>
   <rect x="400" y="-485" width="0" height="25" fill="#429cf5"/>
   <text x="390" y="-470" stroke="black" text-anchor="middle">0</text>
   <text x="900" y="-470" text-anchor="middle" stroke="black">
                Immigration
            </text>
   <rect x="400" y="-455" width="316" height="25" fill="#42cbf5"/>
   <text x="727" y="-440" stroke="black" text-anchor="middle">158</text>
   <rect x="296" y="-455" width="104" height="25" fill="#429cf5"/>
   <text x="286" y="-440" stroke="black" text-anchor="middle">52</text>
   <text x="900" y="-440" text-anchor="middle" stroke="black">
                Unity
            </text>
   <rect x="400" y="-425" width="8" height="25" fill="#42cbf5"/>
   <text x="418" y="-410" stroke="black" text-anchor="middle">4</text>
   <rect x="390" y="-425" width="10" height="25" fill="#429cf5"/>
   <text x="380" y="-410" stroke="black" text-anchor="middle">5</text>
   <text x="900" y="-410" text-anchor="middle" stroke="black">
                Education
            </text>
   <rect x="400" y="-395" width="6" height="25" fill="#42cbf5"/>
   <text x="416" y="-380" stroke="black" text-anchor="middle">3</text>
   <rect x="374" y="-395" width="26" height="25" fill="#429cf5"/>
   <text x="364" y="-380" stroke="black" text-anchor="middle">13</text>
   <text x="900" y="-380" text-anchor="middle" stroke="black">
                Public Health
            </text>
   <rect x="400" y="-365" width="12" height="25" fill="#42cbf5"/>
   <text x="422" y="-350" stroke="black" text-anchor="middle">6</text>
   <rect x="400" y="-365" width="0" height="25" fill="#429cf5"/>
   <text x="390" y="-350" stroke="black" text-anchor="middle">0</text>
   <text x="900" y="-350" text-anchor="middle" stroke="black">
                Predecessor
            </text>
   <rect x="400" y="-335" width="2" height="25" fill="#42cbf5"/>
   <text x="412" y="-320" stroke="black" text-anchor="middle">1</text>
   <rect x="390" y="-335" width="10" height="25" fill="#429cf5"/>
   <text x="380" y="-320" stroke="black" text-anchor="middle">5</text>
   <text x="900" y="-320" text-anchor="middle" stroke="black">
                Criminal Justice
            </text>
   <text x="900" y="-230" text-anchor="middle" stroke="black">
                Positive
            </text>
   <rect x="935" y="-240" width="10" height="10" fill="#42cbf5"/>
   <text x="900" y="-200" text-anchor="middle" stroke="black">
                Negative
            </text>
   <rect x="935" y="-210" width="10" height="10" fill="#429cf5"/>
</svg>
