<?xml version="1.0" encoding="UTF-8"?>
<svg xmlns="http://www.w3.org/2000/svg"
     height="1500"
     width="1500"
     viewBox="-100, -650, 1500, 1500">
   <line x1="0"
         x2="0"
         y1="-525"
         y2="0"
         stroke="black"
         stroke-linecap="square"/>
   <line x1="0"
         x2="1260"
         y1="0"
         y2="0"
         stroke="black"
         stroke-linecap="square"/>
   <text x="630"
         y="-560"
         stroke="black"
         font-size="large"
         font-weight="bold"
         text-anchor="middle">
                References of Economy (1897-2021)
            </text>
   <line x1="0"
         x2="1260"
         y1="-60"
         y2="-60"
         stroke="grey"
         stroke-linecap="square"
         stroke-dasharray="10,10"/>
   <text x="-25" y="-55" stroke="black">0.1</text>
   <line x1="0"
         x2="1260"
         y1="-120"
         y2="-120"
         stroke="grey"
         stroke-linecap="square"
         stroke-dasharray="10,10"/>
   <text x="-25" y="-115" stroke="black">0.2</text>
   <line x1="0"
         x2="1260"
         y1="-180"
         y2="-180"
         stroke="grey"
         stroke-linecap="square"
         stroke-dasharray="10,10"/>
   <text x="-25" y="-175" stroke="black">0.3</text>
   <line x1="0"
         x2="1260"
         y1="-240"
         y2="-240"
         stroke="grey"
         stroke-linecap="square"
         stroke-dasharray="10,10"/>
   <text x="-25" y="-235" stroke="black">0.4</text>
   <line x1="0"
         x2="1260"
         y1="-300"
         y2="-300"
         stroke="grey"
         stroke-linecap="square"
         stroke-dasharray="10,10"/>
   <text x="-25" y="-295" stroke="black">0.5</text>
   <line x1="0"
         x2="1260"
         y1="-360"
         y2="-360"
         stroke="grey"
         stroke-linecap="square"
         stroke-dasharray="10,10"/>
   <text x="-25" y="-355" stroke="black">0.6</text>
   <line x1="0"
         x2="1260"
         y1="-420"
         y2="-420"
         stroke="grey"
         stroke-linecap="square"
         stroke-dasharray="10,10"/>
   <text x="-25" y="-415" stroke="black">0.7</text>
   <line x1="0"
         x2="1260"
         y1="-480"
         y2="-480"
         stroke="grey"
         stroke-linecap="square"
         stroke-dasharray="10,10"/>
   <text x="-25" y="-475" stroke="black">0.8</text>
   <text x="-60"
         y="-265"
         text-anchor="middle"
         font-weight="bold"
         font-size="large"
         stroke="black"
         writing-mode="tb">Percentage</text>
   <text x="620"
         y="60"
         text-anchor="middle"
         font-weight="bold"
         font-size="large"
         stroke="black">Years</text>
   <circle r="2" cx="40" cy="-85.7142857142857142" fill="red"/>
   <line x1="40"
         x2="80"
         y1="-85.7142857142857142"
         y2="-150"
         stroke="black"/>
   <text x="40"
         y="25"
         stroke="black"
         text-anchor="middle"
         font-size="15px">1897</text>
   <circle r="2" cx="80" cy="-150" fill="red"/>
   <line x1="80"
         x2="120"
         y1="-150"
         y2="-40.9090909090909092"
         stroke="black"/>
   <text x="80"
         y="25"
         stroke="black"
         text-anchor="middle"
         font-size="15px">1905</text>
   <circle r="2" cx="120" cy="-40.9090909090909092" fill="red"/>
   <line x1="120"
         x2="160"
         y1="-40.9090909090909092"
         y2="-109.0909090909090908"
         stroke="black"/>
   <text x="120"
         y="25"
         stroke="black"
         text-anchor="middle"
         font-size="15px">1909</text>
   <circle r="2" cx="160" cy="-109.0909090909090908" fill="red"/>
   <line x1="160"
         x2="200"
         y1="-109.0909090909090908"
         y2="-0"
         stroke="black"/>
   <text x="160"
         y="25"
         stroke="black"
         text-anchor="middle"
         font-size="15px">1913</text>
   <circle r="2" cx="200" cy="-0" fill="red"/>
   <line x1="200"
         x2="240"
         y1="-0"
         y2="-88.235294117647059"
         stroke="black"/>
   <text x="200"
         y="25"
         stroke="black"
         text-anchor="middle"
         font-size="15px">1917</text>
   <circle r="2" cx="240" cy="-88.235294117647059" fill="red"/>
   <line x1="240"
         x2="280"
         y1="-88.235294117647059"
         y2="-100.0000000000000002"
         stroke="black"/>
   <text x="240"
         y="25"
         stroke="black"
         text-anchor="middle"
         font-size="15px">1921</text>
   <circle r="2" cx="280" cy="-100.0000000000000002" fill="red"/>
   <line x1="280"
         x2="320"
         y1="-100.0000000000000002"
         y2="-85.7142857142857142"
         stroke="black"/>
   <text x="280"
         y="25"
         stroke="black"
         text-anchor="middle"
         font-size="15px">1925</text>
   <circle r="2" cx="320" cy="-85.7142857142857142" fill="red"/>
   <line x1="320"
         x2="360"
         y1="-85.7142857142857142"
         y2="-92.3076923076923076"
         stroke="black"/>
   <text x="320"
         y="25"
         stroke="black"
         text-anchor="middle"
         font-size="15px">1929</text>
   <circle r="2" cx="360" cy="-92.3076923076923076" fill="red"/>
   <line x1="360"
         x2="400"
         y1="-92.3076923076923076"
         y2="-178.3783783783783782"
         stroke="black"/>
   <text x="360"
         y="25"
         stroke="black"
         text-anchor="middle"
         font-size="15px">1933</text>
   <circle r="2" cx="400" cy="-178.3783783783783782" fill="red"/>
   <line x1="400"
         x2="440"
         y1="-178.3783783783783782"
         y2="-0"
         stroke="black"/>
   <text x="400"
         y="25"
         stroke="black"
         text-anchor="middle"
         font-size="15px">1937</text>
   <circle r="2" cx="440" cy="-0" fill="red"/>
   <line x1="440" x2="480" y1="-0" y2="-0" stroke="black"/>
   <text x="440"
         y="25"
         stroke="black"
         text-anchor="middle"
         font-size="15px">1941</text>
   <circle r="2" cx="480" cy="-0" fill="red"/>
   <line x1="480"
         x2="520"
         y1="-0"
         y2="-76.056338028169014"
         stroke="black"/>
   <text x="480"
         y="25"
         stroke="black"
         text-anchor="middle"
         font-size="15px">1945</text>
   <circle r="2" cx="520" cy="-76.056338028169014" fill="red"/>
   <line x1="520"
         x2="560"
         y1="-76.056338028169014"
         y2="-22.6415094339622644"
         stroke="black"/>
   <text x="520"
         y="25"
         stroke="black"
         text-anchor="middle"
         font-size="15px">1949</text>
   <circle r="2" cx="560" cy="-22.6415094339622644" fill="red"/>
   <line x1="560"
         x2="600"
         y1="-22.6415094339622644"
         y2="-15.3846153846153846"
         stroke="black"/>
   <text x="560"
         y="25"
         stroke="black"
         text-anchor="middle"
         font-size="15px">1953</text>
   <circle r="2" cx="600" cy="-15.3846153846153846" fill="red"/>
   <line x1="600"
         x2="640"
         y1="-15.3846153846153846"
         y2="-0"
         stroke="black"/>
   <text x="600"
         y="25"
         stroke="black"
         text-anchor="middle"
         font-size="15px">1957</text>
   <circle r="2" cx="640" cy="-0" fill="red"/>
   <line x1="640"
         x2="680"
         y1="-0"
         y2="-35.2941176470588236"
         stroke="black"/>
   <text x="640"
         y="25"
         stroke="black"
         text-anchor="middle"
         font-size="15px">1961</text>
   <circle r="2" cx="680" cy="-35.2941176470588236" fill="red"/>
   <line x1="680"
         x2="720"
         y1="-35.2941176470588236"
         y2="-15.5844155844155844"
         stroke="black"/>
   <text x="680"
         y="25"
         stroke="black"
         text-anchor="middle"
         font-size="15px">1965</text>
   <circle r="2" cx="720" cy="-15.5844155844155844" fill="red"/>
   <line x1="720"
         x2="760"
         y1="-15.5844155844155844"
         y2="-0"
         stroke="black"/>
   <text x="720"
         y="25"
         stroke="black"
         text-anchor="middle"
         font-size="15px">1969</text>
   <circle r="2" cx="760" cy="-0" fill="red"/>
   <line x1="760" x2="800" y1="-0" y2="-0" stroke="black"/>
   <text x="760"
         y="25"
         stroke="black"
         text-anchor="middle"
         font-size="15px">1973</text>
   <circle r="2" cx="800" cy="-0" fill="red"/>
   <line x1="800"
         x2="840"
         y1="-0"
         y2="-107.6923076923076922"
         stroke="black"/>
   <text x="800"
         y="25"
         stroke="black"
         text-anchor="middle"
         font-size="15px">1977</text>
   <circle r="2" cx="840" cy="-107.6923076923076922" fill="red"/>
   <line x1="840"
         x2="880"
         y1="-107.6923076923076922"
         y2="-97.674418604651163"
         stroke="black"/>
   <text x="840"
         y="25"
         stroke="black"
         text-anchor="middle"
         font-size="15px">1981</text>
   <circle r="2" cx="880" cy="-97.674418604651163" fill="red"/>
   <line x1="880"
         x2="920"
         y1="-97.674418604651163"
         y2="-43.9024390243902438"
         stroke="black"/>
   <text x="880"
         y="25"
         stroke="black"
         text-anchor="middle"
         font-size="15px">1985</text>
   <circle r="2" cx="920" cy="-43.9024390243902438" fill="red"/>
   <line x1="920"
         x2="960"
         y1="-43.9024390243902438"
         y2="-141.1764705882352944"
         stroke="black"/>
   <text x="920"
         y="25"
         stroke="black"
         text-anchor="middle"
         font-size="15px">1989</text>
   <circle r="2" cx="960" cy="-141.1764705882352944" fill="red"/>
   <line x1="960"
         x2="1000"
         y1="-141.1764705882352944"
         y2="-52.9411764705882354"
         stroke="black"/>
   <text x="960"
         y="25"
         stroke="black"
         text-anchor="middle"
         font-size="15px">1993</text>
   <circle r="2" cx="1000" cy="-52.9411764705882354" fill="red"/>
   <line x1="1000"
         x2="1040"
         y1="-52.9411764705882354"
         y2="-43.9024390243902438"
         stroke="black"/>
   <text x="1000"
         y="25"
         stroke="black"
         text-anchor="middle"
         font-size="15px">1997</text>
   <circle r="2" cx="1040" cy="-43.9024390243902438" fill="red"/>
   <line x1="1040"
         x2="1080"
         y1="-43.9024390243902438"
         y2="-37.5"
         stroke="black"/>
   <text x="1040"
         y="25"
         stroke="black"
         text-anchor="middle"
         font-size="15px">2001</text>
   <circle r="2" cx="1080" cy="-37.5" fill="red"/>
   <line x1="1080"
         x2="1120"
         y1="-37.5"
         y2="-51.4285714285714284"
         stroke="black"/>
   <text x="1080"
         y="25"
         stroke="black"
         text-anchor="middle"
         font-size="15px">2005</text>
   <circle r="2" cx="1120" cy="-51.4285714285714284" fill="red"/>
   <line x1="1120"
         x2="1160"
         y1="-51.4285714285714284"
         y2="-60"
         stroke="black"/>
   <text x="1120"
         y="25"
         stroke="black"
         text-anchor="middle"
         font-size="15px">2009</text>
   <circle r="2" cx="1160" cy="-60" fill="red"/>
   <line x1="1160"
         x2="1200"
         y1="-60"
         y2="-66.6666666666666666"
         stroke="black"/>
   <text x="1160"
         y="25"
         stroke="black"
         text-anchor="middle"
         font-size="15px">2013</text>
   <circle r="2" cx="1200" cy="-66.6666666666666666" fill="red"/>
   <line x1="1200"
         x2="1240"
         y1="-66.6666666666666666"
         y2="-8.6538461538461538"
         stroke="black"/>
   <text x="1200"
         y="25"
         stroke="black"
         text-anchor="middle"
         font-size="15px">2017</text>
   <circle r="2" cx="1240" cy="-8.6538461538461538" fill="red"/>
   <text x="1240"
         y="25"
         stroke="black"
         text-anchor="middle"
         font-size="15px">2021</text>
</svg>
