<?xml version="1.0" encoding="UTF-8"?>
<svg xmlns="http://www.w3.org/2000/svg"
     height="1500"
     width="1500"
     viewBox="-100, -650, 1500, 1500">
   <text x="400"
         y="-625"
         text-anchor="middle"
         font-weight="bold"
         font-size="large"
         stroke="black">William McKinley Negative and Positive Tone Butterfly Graph (Term 2)
            </text>
   <line x1="400" x2="400" y1="-600" y2="-260" stroke="black"/>
   <rect x="400" y="-575" width="50" height="25" fill="blue"/>
   <text x="460" y="-560" stroke="black" text-anchor="middle">2</text>
   <rect x="400" y="-575" width="0" height="25" fill="red"/>
   <text x="390" y="-560" stroke="black" text-anchor="middle">0</text>
   <text x="750" y="-560" text-anchor="middle" stroke="black">
                Economy
            </text>
   <rect x="400" y="-545" width="75" height="25" fill="blue"/>
   <text x="485" y="-530" stroke="black" text-anchor="middle">3</text>
   <rect x="325" y="-545" width="75" height="25" fill="red"/>
   <text x="315" y="-530" stroke="black" text-anchor="middle">3</text>
   <text x="750" y="-530" text-anchor="middle" stroke="black">
                War
            </text>
   <rect x="400" y="-515" width="25" height="25" fill="blue"/>
   <text x="435" y="-500" stroke="black" text-anchor="middle">1</text>
   <rect x="400" y="-515" width="0" height="25" fill="red"/>
   <text x="390" y="-500" stroke="black" text-anchor="middle">0</text>
   <text x="750" y="-500" text-anchor="middle" stroke="black">
                Jobs
            </text>
   <rect x="400" y="-485" width="0" height="25" fill="blue"/>
   <text x="410" y="-470" stroke="black" text-anchor="middle">0</text>
   <rect x="400" y="-485" width="0" height="25" fill="red"/>
   <text x="390" y="-470" stroke="black" text-anchor="middle">0</text>
   <text x="750" y="-470" text-anchor="middle" stroke="black">
                Immigration
            </text>
   <rect x="400" y="-455" width="75" height="25" fill="blue"/>
   <text x="485" y="-440" stroke="black" text-anchor="middle">3</text>
   <rect x="375" y="-455" width="25" height="25" fill="red"/>
   <text x="365" y="-440" stroke="black" text-anchor="middle">1</text>
   <text x="750" y="-440" text-anchor="middle" stroke="black">
                Unity
            </text>
   <rect x="400" y="-425" width="0" height="25" fill="blue"/>
   <text x="410" y="-410" stroke="black" text-anchor="middle">0</text>
   <rect x="400" y="-425" width="0" height="25" fill="red"/>
   <text x="390" y="-410" stroke="black" text-anchor="middle">0</text>
   <text x="750" y="-410" text-anchor="middle" stroke="black">
                Education
            </text>
   <rect x="400" y="-395" width="0" height="25" fill="blue"/>
   <text x="410" y="-380" stroke="black" text-anchor="middle">0</text>
   <rect x="400" y="-395" width="0" height="25" fill="red"/>
   <text x="390" y="-380" stroke="black" text-anchor="middle">0</text>
   <text x="750" y="-380" text-anchor="middle" stroke="black">
                Public Health
            </text>
   <rect x="400" y="-365" width="0" height="25" fill="blue"/>
   <text x="410" y="-350" stroke="black" text-anchor="middle">0</text>
   <rect x="400" y="-365" width="0" height="25" fill="red"/>
   <text x="390" y="-350" stroke="black" text-anchor="middle">0</text>
   <text x="750" y="-350" text-anchor="middle" stroke="black">
                Predecessor
            </text>
   <rect x="400" y="-335" width="0" height="25" fill="blue"/>
   <text x="410" y="-320" stroke="black" text-anchor="middle">0</text>
   <rect x="400" y="-335" width="0" height="25" fill="red"/>
   <text x="390" y="-320" stroke="black" text-anchor="middle">0</text>
   <text x="750" y="-320" text-anchor="middle" stroke="black">
                Criminal Justice
            </text>
   <rect x="400" y="-305" width="0" height="25" fill="blue"/>
   <text x="410" y="-290" stroke="black" text-anchor="middle">0</text>
   <rect x="375" y="-305" width="25" height="25" fill="red"/>
   <text x="365" y="-290" stroke="black" text-anchor="middle">1</text>
   <text x="750" y="-290" text-anchor="middle" stroke="black">
                Tax
            </text>
</svg>
