<?xml version="1.0" encoding="UTF-8"?>
<svg xmlns="http://www.w3.org/2000/svg"
     height="1500"
     width="1500"
     viewBox="-100, -650, 1500, 1500">
   <text x="400"
         y="-625"
         text-anchor="middle"
         font-weight="bold"
         font-size="large"
         stroke="black">
                Republican Presidents Positive and Negative Butterfly Graph
            </text>
   <line x1="400" x2="400" y1="-600" y2="-290" stroke="black"/>
   <rect x="400" y="-575" width="52" height="25" fill="blue"/>
   <text x="462" y="-560" stroke="black" text-anchor="middle">26</text>
   <rect x="352" y="-575" width="48" height="25" fill="red"/>
   <text x="342" y="-560" stroke="black" text-anchor="middle">24</text>
   <text x="900" y="-560" text-anchor="middle" stroke="black">
                Economy
            </text>
   <rect x="400" y="-545" width="68" height="25" fill="blue"/>
   <text x="478" y="-530" stroke="black" text-anchor="middle">34</text>
   <rect x="302" y="-545" width="98" height="25" fill="red"/>
   <text x="292" y="-530" stroke="black" text-anchor="middle">49</text>
   <text x="900" y="-530" text-anchor="middle" stroke="black">
                War
            </text>
   <rect x="400" y="-515" width="8" height="25" fill="blue"/>
   <text x="418" y="-500" stroke="black" text-anchor="middle">4</text>
   <rect x="388" y="-515" width="12" height="25" fill="red"/>
   <text x="378" y="-500" stroke="black" text-anchor="middle">6</text>
   <text x="900" y="-500" text-anchor="middle" stroke="black">
                Jobs
            </text>
   <rect x="400" y="-485" width="4" height="25" fill="blue"/>
   <text x="414" y="-470" stroke="black" text-anchor="middle">2</text>
   <rect x="394" y="-485" width="6" height="25" fill="red"/>
   <text x="384" y="-470" stroke="black" text-anchor="middle">3</text>
   <text x="900" y="-470" text-anchor="middle" stroke="black">
                Immigration
            </text>
   <rect x="400" y="-455" width="236" height="25" fill="blue"/>
   <text x="647" y="-440" stroke="black" text-anchor="middle">118</text>
   <rect x="322" y="-455" width="78" height="25" fill="red"/>
   <text x="312" y="-440" stroke="black" text-anchor="middle">39</text>
   <text x="900" y="-440" text-anchor="middle" stroke="black">
                Unity
            </text>
   <rect x="400" y="-425" width="6" height="25" fill="blue"/>
   <text x="416" y="-410" stroke="black" text-anchor="middle">3</text>
   <rect x="378" y="-425" width="22" height="25" fill="red"/>
   <text x="368" y="-410" stroke="black" text-anchor="middle">11</text>
   <text x="900" y="-410" text-anchor="middle" stroke="black">
                Education
            </text>
   <rect x="400" y="-395" width="4" height="25" fill="blue"/>
   <text x="414" y="-380" stroke="black" text-anchor="middle">2</text>
   <rect x="394" y="-395" width="6" height="25" fill="red"/>
   <text x="384" y="-380" stroke="black" text-anchor="middle">3</text>
   <text x="900" y="-380" text-anchor="middle" stroke="black">
                Public Health
            </text>
   <rect x="400" y="-365" width="16" height="25" fill="blue"/>
   <text x="426" y="-350" stroke="black" text-anchor="middle">8</text>
   <rect x="400" y="-365" width="0" height="25" fill="red"/>
   <text x="390" y="-350" stroke="black" text-anchor="middle">0</text>
   <text x="900" y="-350" text-anchor="middle" stroke="black">
                Predecessor
            </text>
   <rect x="400" y="-335" width="4" height="25" fill="blue"/>
   <text x="414" y="-320" stroke="black" text-anchor="middle">2</text>
   <rect x="368" y="-335" width="32" height="25" fill="red"/>
   <text x="358" y="-320" stroke="black" text-anchor="middle">16</text>
   <text x="900" y="-320" text-anchor="middle" stroke="black">
                Criminal Justice
            </text>
</svg>
