<?xml version="1.0" encoding="UTF-8"?>
<svg xmlns="http://www.w3.org/2000/svg"
     height="1500"
     width="1500"
     viewBox="-100, -650, 1500, 1500">
   <line x1="0"
         x2="0"
         y1="-525"
         y2="0"
         stroke="black"
         stroke-linecap="square"/>
   <line x1="0"
         x2="1260"
         y1="0"
         y2="0"
         stroke="black"
         stroke-linecap="square"/>
   <text x="630"
         y="-560"
         stroke="black"
         font-weight="bold"
         text-anchor="middle">
                Change of the Use of Unity Over Time
            </text>
   <line x1="0"
         x2="1260"
         y1="-125"
         y2="-125"
         stroke="grey"
         stroke-linecap="square"
         stroke-dasharray="10,10"/>
   <text x="-25" y="-120" stroke="black">5</text>
   <line x1="0"
         x2="1260"
         y1="-250"
         y2="-250"
         stroke="grey"
         stroke-linecap="square"
         stroke-dasharray="10,10"/>
   <text x="-25" y="-245" stroke="black">10</text>
   <line x1="0"
         x2="1260"
         y1="-375"
         y2="-375"
         stroke="grey"
         stroke-linecap="square"
         stroke-dasharray="10,10"/>
   <text x="-25" y="-370" stroke="black">15</text>
   <line x1="0"
         x2="1260"
         y1="-500"
         y2="-500"
         stroke="grey"
         stroke-linecap="square"
         stroke-dasharray="10,10"/>
   <text x="-25" y="-495" stroke="black">20</text>
   <circle r="2" cx="40" cy="-100" fill="red"/>
   <line x1="40" x2="80" y1="-100" y2="-75" stroke="black"/>
   <text x="40"
         y="25"
         stroke="black"
         text-anchor="middle"
         font-size="15px">1897</text>
   <circle r="2" cx="80" cy="-75" fill="red"/>
   <line x1="80" x2="120" y1="-75" y2="-25" stroke="black"/>
   <text x="80"
         y="25"
         stroke="black"
         text-anchor="middle"
         font-size="15px">1905</text>
   <circle r="2" cx="120" cy="-25" fill="red"/>
   <line x1="120" x2="160" y1="-25" y2="-150" stroke="black"/>
   <text x="120"
         y="25"
         stroke="black"
         text-anchor="middle"
         font-size="15px">1909</text>
   <circle r="2" cx="160" cy="-150" fill="red"/>
   <line x1="160" x2="200" y1="-150" y2="-150" stroke="black"/>
   <text x="160"
         y="25"
         stroke="black"
         text-anchor="middle"
         font-size="15px">1913</text>
   <circle r="2" cx="200" cy="-150" fill="red"/>
   <line x1="200" x2="240" y1="-150" y2="-200" stroke="black"/>
   <text x="200"
         y="25"
         stroke="black"
         text-anchor="middle"
         font-size="15px">1917</text>
   <circle r="2" cx="240" cy="-200" fill="red"/>
   <line x1="240" x2="280" y1="-200" y2="-225" stroke="black"/>
   <text x="240"
         y="25"
         stroke="black"
         text-anchor="middle"
         font-size="15px">1921</text>
   <circle r="2" cx="280" cy="-225" fill="red"/>
   <line x1="280" x2="320" y1="-225" y2="-175" stroke="black"/>
   <text x="280"
         y="25"
         stroke="black"
         text-anchor="middle"
         font-size="15px">1925</text>
   <circle r="2" cx="320" cy="-175" fill="red"/>
   <line x1="320" x2="360" y1="-175" y2="-125" stroke="black"/>
   <text x="320"
         y="25"
         stroke="black"
         text-anchor="middle"
         font-size="15px">1929</text>
   <circle r="2" cx="360" cy="-125" fill="red"/>
   <line x1="360" x2="400" y1="-125" y2="-375" stroke="black"/>
   <text x="360"
         y="25"
         stroke="black"
         text-anchor="middle"
         font-size="15px">1933</text>
   <circle r="2" cx="400" cy="-375" fill="red"/>
   <line x1="400" x2="440" y1="-375" y2="-325" stroke="black"/>
   <text x="400"
         y="25"
         stroke="black"
         text-anchor="middle"
         font-size="15px">1937</text>
   <circle r="2" cx="440" cy="-325" fill="red"/>
   <line x1="440" x2="480" y1="-325" y2="-225" stroke="black"/>
   <text x="440"
         y="25"
         stroke="black"
         text-anchor="middle"
         font-size="15px">1941</text>
   <circle r="2" cx="480" cy="-225" fill="red"/>
   <line x1="480" x2="520" y1="-225" y2="-50" stroke="black"/>
   <text x="480"
         y="25"
         stroke="black"
         text-anchor="middle"
         font-size="15px">1945</text>
   <circle r="2" cx="520" cy="-50" fill="red"/>
   <line x1="520" x2="560" y1="-50" y2="-425" stroke="black"/>
   <text x="520"
         y="25"
         stroke="black"
         text-anchor="middle"
         font-size="15px">1949</text>
   <circle r="2" cx="560" cy="-425" fill="red"/>
   <line x1="560" x2="600" y1="-425" y2="-50" stroke="black"/>
   <text x="560"
         y="25"
         stroke="black"
         text-anchor="middle"
         font-size="15px">1953</text>
   <circle r="2" cx="600" cy="-50" fill="red"/>
   <line x1="600" x2="640" y1="-50" y2="-125" stroke="black"/>
   <text x="600"
         y="25"
         stroke="black"
         text-anchor="middle"
         font-size="15px">1957</text>
   <circle r="2" cx="640" cy="-125" fill="red"/>
   <line x1="640" x2="680" y1="-125" y2="-250" stroke="black"/>
   <text x="640"
         y="25"
         stroke="black"
         text-anchor="middle"
         font-size="15px">1961</text>
   <circle r="2" cx="680" cy="-250" fill="red"/>
   <line x1="680" x2="720" y1="-250" y2="-350" stroke="black"/>
   <text x="680"
         y="25"
         stroke="black"
         text-anchor="middle"
         font-size="15px">1965</text>
   <circle r="2" cx="720" cy="-350" fill="red"/>
   <line x1="720" x2="760" y1="-350" y2="-425" stroke="black"/>
   <text x="720"
         y="25"
         stroke="black"
         text-anchor="middle"
         font-size="15px">1969</text>
   <circle r="2" cx="760" cy="-425" fill="red"/>
   <line x1="760" x2="800" y1="-425" y2="-325" stroke="black"/>
   <text x="760"
         y="25"
         stroke="black"
         text-anchor="middle"
         font-size="15px">1973</text>
   <circle r="2" cx="800" cy="-325" fill="red"/>
   <line x1="800" x2="840" y1="-325" y2="-375" stroke="black"/>
   <text x="800"
         y="25"
         stroke="black"
         text-anchor="middle"
         font-size="15px">1977</text>
   <circle r="2" cx="840" cy="-375" fill="red"/>
   <line x1="840" x2="880" y1="-375" y2="-250" stroke="black"/>
   <text x="840"
         y="25"
         stroke="black"
         text-anchor="middle"
         font-size="15px">1981</text>
   <circle r="2" cx="880" cy="-250" fill="red"/>
   <line x1="880" x2="920" y1="-250" y2="-325" stroke="black"/>
   <text x="880"
         y="25"
         stroke="black"
         text-anchor="middle"
         font-size="15px">1985</text>
   <circle r="2" cx="920" cy="-325" fill="red"/>
   <line x1="920" x2="960" y1="-325" y2="-225" stroke="black"/>
   <text x="920"
         y="25"
         stroke="black"
         text-anchor="middle"
         font-size="15px">1989</text>
   <circle r="2" cx="960" cy="-225" fill="red"/>
   <line x1="960" x2="1000" y1="-225" y2="-275" stroke="black"/>
            <text x="960"
         y="25"
         stroke="black"
         text-anchor="middle"
         font-size="15px">1993</text>
   <circle r="2" cx="1000" cy="-275" fill="red"/>
   <line x1="1000" x2="1040" y1="-275" y2="-375" stroke="black"/>
   <text x="1000"
         y="25"
         stroke="black"
         text-anchor="middle"
         font-size="15px">1997</text>
   <circle r="2" cx="1040" cy="-375" fill="red"/>
   <line x1="1040" x2="1080" y1="-375" y2="-275" stroke="black"/>
   <text x="1040"
         y="25"
         stroke="black"
         text-anchor="middle"
         font-size="15px">2001</text>
   <circle r="2" cx="1080" cy="-275" fill="red"/>
   <line x1="1080" x2="1120" y1="-275" y2="-400" stroke="black"/>
   <text x="1080"
         y="25"
         stroke="black"
         text-anchor="middle"
         font-size="15px">2005</text>
   <circle r="2" cx="1120" cy="-400" fill="red"/>
   <line x1="1120" x2="1160" y1="-400" y2="-450" stroke="black"/>
   <text x="1120"
         y="25"
         stroke="black"
         text-anchor="middle"
         font-size="15px">2009</text>
   <circle r="2" cx="1160" cy="-450" fill="red"/>
   <line x1="1160" x2="1200" y1="-450" y2="-275" stroke="black"/>
   <text x="1160"
         y="25"
         stroke="black"
         text-anchor="middle"
         font-size="15px">2013</text>
   <circle r="2" cx="1200" cy="-275" fill="red"/>
   <text x="1200"
         y="25"
         stroke="black"
         text-anchor="middle"
         font-size="15px">2017</text>
</svg>
